<?xml version="1.0" encoding="UTF-8"?>
<svg width="30px" height="30px" viewBox="0 0 30 30" version="1.1" xmlns="http://www.w3.org/2000/svg" xmlns:xlink="http://www.w3.org/1999/xlink">
    <!-- Generator: Sketch 60.1 (88133) - https://sketch.com -->
    <title>更多</title>
    <desc>Created with Sketch.</desc>
    <g id="Page-1" stroke="none" stroke-width="1" fill="none" fill-rule="evenodd">
        <g id="首頁" transform="translate(-1544.000000, -1398.000000)">
            <g id="编组-30" transform="translate(1462.000000, 1398.000000)">
                <g id="更多" transform="translate(82.000000, 0.000000)">
                    <rect id="矩形" fill="#F5F5F5" x="0" y="0" width="30" height="30" rx="2"></rect>
                    <g transform="translate(11.000000, 8.000000)" fill="#666666" fill-rule="nonzero" id="路径">
                        <path d="M7.39971309,6.63810854 L1.00870565,0.216301066 C0.81620543,0.0238008422 0.492805053,0.0238008422 0.300304829,0.216301066 C0.107804605,0.40880129 0.107804605,0.732201667 0.300304829,0.9324019 L6.34481186,7.00000896 L0.300304829,13.067616 C0.107804605,13.2601162 0.107804605,13.5835166 0.300304829,13.7837169 C0.492805053,13.9762171 0.81620543,13.9762171 1.00870565,13.7837169 L7.39971309,7.36190938 C7.49981321,7.26180926 7.54601326,7.13090911 7.54601326,7.00000896 C7.54601326,6.86910881 7.49981321,6.73820866 7.39971309,6.63810854 L7.39971309,6.63810854 Z"></path>
                    </g>
                </g>
            </g>
        </g>
    </g>
</svg>